<svg width="115" height="34" viewBox="0 0 115 34" fill="none" xmlns="http://www.w3.org/2000/svg">
<g filter="url(#filter0_d_228_48)">
<path d="M44.9034 11.5568L41.7174 20.8H39.7911L43.8048 10.1359H45.0353L44.9034 11.5568ZM47.5695 20.8L44.3761 11.5568L44.2369 10.1359H45.4747L49.5031 20.8H47.5695ZM47.4156 16.8449V18.3024H41.6149V16.8449H47.4156ZM52.4108 9.54999V20.8H50.6383V9.54999H52.4108ZM59.42 12.8752H61.024V20.5803C61.024 21.2932 60.8727 21.8986 60.5699 22.3967C60.2672 22.8947 59.8448 23.2731 59.3029 23.5319C58.7609 23.7956 58.1334 23.9274 57.4205 23.9274C57.1178 23.9274 56.7809 23.8835 56.4098 23.7956C56.0436 23.7077 55.6871 23.5661 55.3405 23.3708C54.9987 23.1804 54.713 22.9289 54.4835 22.6164L55.3112 21.5764C55.5944 21.9133 55.9069 22.1599 56.2487 22.3161C56.5905 22.4724 56.9493 22.5505 57.3253 22.5505C57.7306 22.5505 58.0748 22.4748 58.358 22.3234C58.6461 22.1769 58.8683 21.9597 59.0245 21.6716C59.1808 21.3835 59.2589 21.0319 59.2589 20.6169V14.6696L59.42 12.8752ZM54.0367 16.9255V16.7717C54.0367 16.1711 54.11 15.6242 54.2565 15.131C54.403 14.633 54.6129 14.2057 54.8864 13.8493C55.1598 13.488 55.4918 13.2121 55.8824 13.0217C56.2731 12.8264 56.715 12.7287 57.2081 12.7287C57.7208 12.7287 58.1578 12.8215 58.5192 13.007C58.8854 13.1926 59.1906 13.4587 59.4347 13.8054C59.6788 14.1472 59.8693 14.5573 60.006 15.0358C60.1476 15.5095 60.2526 16.0368 60.3209 16.6179V17.1086C60.2574 17.675 60.15 18.1926 59.9987 18.6613C59.8473 19.1301 59.6471 19.5353 59.3981 19.8771C59.149 20.2189 58.8414 20.4826 58.4752 20.6682C58.1139 20.8537 57.6866 20.9465 57.1935 20.9465C56.7101 20.9465 56.2731 20.8464 55.8824 20.6462C55.4967 20.446 55.1647 20.1652 54.8864 19.8039C54.6129 19.4426 54.403 19.0178 54.2565 18.5295C54.11 18.0363 54.0367 17.5016 54.0367 16.9255ZM55.8019 16.7717V16.9255C55.8019 17.2868 55.8361 17.6237 55.9044 17.9362C55.9777 18.2487 56.0875 18.5246 56.234 18.7639C56.3854 18.9982 56.5758 19.1838 56.8053 19.3205C57.0397 19.4523 57.3156 19.5182 57.6329 19.5182C58.048 19.5182 58.3873 19.4304 58.651 19.2546C58.9196 19.0788 59.1246 18.842 59.2662 18.5441C59.4127 18.2414 59.5153 17.9045 59.5739 17.5334V16.2077C59.5446 15.9196 59.4835 15.6511 59.3907 15.402C59.3029 15.153 59.1832 14.9357 59.0319 14.7502C58.8805 14.5598 58.6901 14.4133 58.4606 14.3107C58.2311 14.2033 57.9601 14.1496 57.6476 14.1496C57.3302 14.1496 57.0543 14.218 56.8199 14.3547C56.5856 14.4914 56.3927 14.6794 56.2413 14.9186C56.0948 15.1579 55.985 15.4362 55.9117 15.7536C55.8385 16.071 55.8019 16.4103 55.8019 16.7717ZM66.3488 20.9465C65.7628 20.9465 65.233 20.8513 64.7594 20.6608C64.2906 20.4655 63.8903 20.1945 63.5582 19.8478C63.2311 19.5012 62.9796 19.0934 62.8038 18.6247C62.6281 18.1559 62.5402 17.6506 62.5402 17.1086V16.8156C62.5402 16.1955 62.6305 15.634 62.8112 15.131C62.9918 14.6281 63.2433 14.1984 63.5656 13.842C63.8878 13.4807 64.2687 13.2048 64.7081 13.0143C65.1476 12.8239 65.6237 12.7287 66.1364 12.7287C66.7028 12.7287 67.1984 12.8239 67.6232 13.0143C68.048 13.2048 68.3995 13.4733 68.6779 13.82C68.9611 14.1618 69.171 14.5695 69.3077 15.0432C69.4493 15.5168 69.5201 16.0392 69.5201 16.6105V17.3649H63.3971V16.0978H67.777V15.9587C67.7672 15.6413 67.7037 15.3434 67.5865 15.0651C67.4742 14.7868 67.3009 14.5622 67.0665 14.3913C66.8322 14.2204 66.5197 14.1349 66.129 14.1349C65.8361 14.1349 65.5748 14.1984 65.3453 14.3254C65.1207 14.4474 64.9327 14.6257 64.7814 14.86C64.63 15.0944 64.5128 15.3776 64.4298 15.7097C64.3517 16.0368 64.3126 16.4055 64.3126 16.8156V17.1086C64.3126 17.4553 64.359 17.7775 64.4518 18.0754C64.5494 18.3683 64.691 18.6247 64.8766 18.8444C65.0621 19.0641 65.2867 19.2375 65.5504 19.3644C65.8141 19.4865 66.1144 19.5475 66.4513 19.5475C66.8761 19.5475 67.2545 19.4621 67.5865 19.2912C67.9186 19.1203 68.2067 18.8786 68.4508 18.5661L69.381 19.467C69.2101 19.716 68.9879 19.9553 68.7145 20.1848C68.441 20.4094 68.1066 20.5925 67.7111 20.7341C67.3204 20.8757 66.8663 20.9465 66.3488 20.9465ZM70.9044 9.54999H72.6696V19.1081L72.5011 20.8H70.9044V9.54999ZM77.8405 16.7643V16.9182C77.8405 17.5041 77.7745 18.0436 77.6427 18.5368C77.5157 19.0251 77.3204 19.4499 77.0568 19.8112C76.798 20.1725 76.4757 20.4533 76.09 20.6535C75.7091 20.8488 75.2672 20.9465 74.7643 20.9465C74.2711 20.9465 73.8414 20.8537 73.4752 20.6682C73.109 20.4826 72.8014 20.2189 72.5524 19.8771C72.3082 19.5353 72.1105 19.1276 71.9591 18.654C71.8077 18.1804 71.7003 17.6579 71.6368 17.0866V16.5959C71.7003 16.0197 71.8077 15.4973 71.9591 15.0285C72.1105 14.5549 72.3082 14.1472 72.5524 13.8054C72.8014 13.4587 73.1066 13.1926 73.4679 13.007C73.8341 12.8215 74.2614 12.7287 74.7496 12.7287C75.2574 12.7287 75.7042 12.8264 76.09 13.0217C76.4806 13.217 76.8053 13.4953 77.0641 13.8566C77.3229 14.2131 77.5157 14.6379 77.6427 15.131C77.7745 15.6242 77.8405 16.1686 77.8405 16.7643ZM76.0753 16.9182V16.7643C76.0753 16.4079 76.046 16.0734 75.9874 15.7609C75.9288 15.4435 75.8312 15.1652 75.6945 14.926C75.5626 14.6867 75.382 14.4987 75.1525 14.362C74.9279 14.2204 74.6471 14.1496 74.3102 14.1496C73.9977 14.1496 73.7291 14.2033 73.5045 14.3107C73.2799 14.4182 73.0919 14.5646 72.9406 14.7502C72.7892 14.9357 72.6696 15.1506 72.5817 15.3947C72.4987 15.6389 72.4425 15.9025 72.4132 16.1857V17.5114C72.4572 17.8776 72.5499 18.2145 72.6915 18.5222C72.838 18.8249 73.0431 19.069 73.3068 19.2546C73.5704 19.4352 73.9098 19.5256 74.3248 19.5256C74.652 19.5256 74.9279 19.4597 75.1525 19.3278C75.3771 19.196 75.5553 19.0129 75.6871 18.7785C75.8239 18.5392 75.9215 18.2609 75.9801 17.9435C76.0436 17.6262 76.0753 17.2844 76.0753 16.9182ZM81.1071 14.384V20.8H79.3419V12.8752H81.0265L81.1071 14.384ZM83.5314 12.8239L83.5167 14.4645C83.4093 14.445 83.2921 14.4304 83.1652 14.4206C83.0431 14.4108 82.921 14.4059 82.799 14.4059C82.4962 14.4059 82.2301 14.4499 82.0006 14.5378C81.7711 14.6208 81.5782 14.7429 81.422 14.904C81.2706 15.0602 81.1534 15.2507 81.0704 15.4753C80.9874 15.6999 80.9386 15.9514 80.924 16.2297L80.5211 16.259C80.5211 15.7609 80.5699 15.2995 80.6676 14.8747C80.7653 14.4499 80.9117 14.0764 81.1071 13.7541C81.3073 13.4318 81.5563 13.1804 81.8541 12.9997C82.1569 12.819 82.506 12.7287 82.9015 12.7287C83.0089 12.7287 83.1237 12.7385 83.2457 12.758C83.3727 12.7775 83.4679 12.7995 83.5314 12.8239ZM88.9659 11.5568L85.7799 20.8H83.8536L87.8673 10.1359H89.0978L88.9659 11.5568ZM91.632 20.8L88.4386 11.5568L88.2994 10.1359H89.5372L93.5656 20.8H91.632ZM91.4781 16.8449V18.3024H85.6774V16.8449H91.4781ZM96.2242 14.3986V23.8469H94.4591V12.8752H96.0851L96.2242 14.3986ZM101.388 16.7643V16.9182C101.388 17.4943 101.319 18.029 101.183 18.5222C101.051 19.0104 100.853 19.4377 100.589 19.8039C100.331 20.1652 100.011 20.446 99.63 20.6462C99.2491 20.8464 98.8097 20.9465 98.3116 20.9465C97.8185 20.9465 97.3864 20.8561 97.0153 20.6755C96.649 20.4899 96.339 20.2287 96.0851 19.8918C95.8312 19.5549 95.6261 19.1594 95.4698 18.7053C95.3185 18.2463 95.2111 17.7433 95.1476 17.1965V16.6032C95.2111 16.0222 95.3185 15.4948 95.4698 15.0212C95.6261 14.5475 95.8312 14.1398 96.0851 13.798C96.339 13.4562 96.649 13.1926 97.0153 13.007C97.3815 12.8215 97.8087 12.7287 98.297 12.7287C98.795 12.7287 99.2369 12.8264 99.6227 13.0217C100.008 13.2121 100.333 13.4855 100.597 13.842C100.86 14.1935 101.058 14.6183 101.19 15.1164C101.322 15.6096 101.388 16.1589 101.388 16.7643ZM99.6227 16.9182V16.7643C99.6227 16.3981 99.5885 16.0588 99.5201 15.7463C99.4518 15.4289 99.3444 15.1506 99.1979 14.9113C99.0514 14.6721 98.8634 14.4865 98.6339 14.3547C98.4093 14.218 98.1383 14.1496 97.8209 14.1496C97.5084 14.1496 97.2399 14.2033 97.0153 14.3107C96.7906 14.4133 96.6027 14.5573 96.4513 14.7429C96.2999 14.9284 96.1827 15.1457 96.0997 15.3947C96.0167 15.6389 95.9581 15.905 95.924 16.1931V17.614C95.9825 17.9655 96.0826 18.2878 96.2242 18.5807C96.3658 18.8737 96.566 19.1081 96.8248 19.2839C97.0885 19.4548 97.4254 19.5402 97.8356 19.5402C98.153 19.5402 98.424 19.4719 98.6486 19.3351C98.8732 19.1984 99.0563 19.0104 99.1979 18.7712C99.3444 18.527 99.4518 18.2463 99.5201 17.9289C99.5885 17.6115 99.6227 17.2746 99.6227 16.9182ZM104.662 14.3986V23.8469H102.897V12.8752H104.523L104.662 14.3986ZM109.825 16.7643V16.9182C109.825 17.4943 109.757 18.029 109.62 18.5222C109.488 19.0104 109.291 19.4377 109.027 19.8039C108.768 20.1652 108.448 20.446 108.068 20.6462C107.687 20.8464 107.247 20.9465 106.749 20.9465C106.256 20.9465 105.824 20.8561 105.453 20.6755C105.087 20.4899 104.776 20.2287 104.523 19.8918C104.269 19.5549 104.064 19.1594 103.907 18.7053C103.756 18.2463 103.649 17.7433 103.585 17.1965V16.6032C103.649 16.0222 103.756 15.4948 103.907 15.0212C104.064 14.5475 104.269 14.1398 104.523 13.798C104.776 13.4562 105.087 13.1926 105.453 13.007C105.819 12.8215 106.246 12.7287 106.734 12.7287C107.233 12.7287 107.674 12.8264 108.06 13.0217C108.446 13.2121 108.771 13.4855 109.034 13.842C109.298 14.1935 109.496 14.6183 109.628 15.1164C109.759 15.6096 109.825 16.1589 109.825 16.7643ZM108.06 16.9182V16.7643C108.06 16.3981 108.026 16.0588 107.958 15.7463C107.889 15.4289 107.782 15.1506 107.635 14.9113C107.489 14.6721 107.301 14.4865 107.071 14.3547C106.847 14.218 106.576 14.1496 106.258 14.1496C105.946 14.1496 105.677 14.2033 105.453 14.3107C105.228 14.4133 105.04 14.5573 104.889 14.7429C104.737 14.9284 104.62 15.1457 104.537 15.3947C104.454 15.6389 104.396 15.905 104.361 16.1931V17.614C104.42 17.9655 104.52 18.2878 104.662 18.5807C104.803 18.8737 105.004 19.1081 105.262 19.2839C105.526 19.4548 105.863 19.5402 106.273 19.5402C106.59 19.5402 106.861 19.4719 107.086 19.3351C107.311 19.1984 107.494 19.0104 107.635 18.7712C107.782 18.527 107.889 18.2463 107.958 17.9289C108.026 17.6115 108.06 17.2746 108.06 16.9182Z" fill="#DE850D"/>
</g>
<path d="M2.39167 8.71668C3.85988 8.03583 5.35074 7.40492 6.86167 6.82501L5.6 11.3333L8.91333 19.2333L9.89333 22.675L4.89333 20.5867L1.22667 11.8033L2.40333 8.71501L2.39167 8.71668Z" fill="url(#paint0_linear_228_48)"/>
<path d="M0.783333 20.59L2.79333 16.4316L5.07667 20.59L16.9017 24.7366L11.3817 27.745L2.55833 24.345L0.783333 20.59Z" fill="url(#paint1_linear_228_48)"/>
<path d="M25.3333 16.9033L23.48 12.1967L22.8533 11.8433L17.5683 24.815L11.3817 27.6583L6.93167 26.285L8.42167 30.5983L11.8133 32.255L20.53 28.1383L25.3333 16.9033Z" fill="url(#paint2_linear_228_48)"/>
<path d="M21.3917 32.3333L16.5883 30.275L20.765 27.9033L25.6483 17.265L27.6567 21.9317L24.265 30.9917L21.3917 32.3333Z" fill="url(#paint3_linear_228_48)"/>
<path d="M28.05 12.56L23.0883 10.7367C24.6383 14.4789 26.1478 18.2367 27.6167 22.01C27.6867 22.325 26.6167 25.1967 26.0783 26.5984L30.8133 24.8534L32.1867 21.62L28.05 12.56Z" fill="url(#paint4_linear_228_48)"/>
<path d="M9.96167 21.2567L15.48 8.52002L23.0883 11.2567L17.4117 24.6967L9.96167 21.2667V21.2567Z" fill="url(#paint5_linear_228_48)"/>
<path d="M21.6667 5.48169L16.9017 7.85336L28.01 12.275L30.4217 16.9517L32.225 12.7167L31.0883 9.18669L21.6767 5.48169H21.6667Z" fill="url(#paint6_linear_228_48)"/>
<path d="M24.8617 2.55002L26.4017 6.78502L26.1567 7.13835L21.7833 5.40335L15.8717 7.93169L9.96 21.265L7.91 16.1584L12.2833 5.00002L21.2733 1.16669L24.8617 2.55002Z" fill="url(#paint7_linear_228_48)"/>
<path d="M5.51 11.1767L8.86333 2.59001L12.5683 0.92334L16.745 3.08001L12.5683 4.81334L7.715 16.1283L5.51 11.1867V11.1767Z" fill="url(#paint8_linear_228_48)"/>
<path d="M21.0783 15.2066L20.765 15.05L14.49 12.2366L14.3333 12.6283L20.9217 15.57L21.0783 15.2066Z" fill="#4AB7E5"/>
<path d="M8.62667 30.275L11.765 31.6967L11.8817 31.2267L8.89167 29.9233L7.62667 26.8333L7.35333 26.56L7.15667 26.8333L8.61667 30.275H8.62667Z" fill="#2E6CA9"/>
<path d="M25.1367 18.05L25.255 18.6483L25.4117 18.295L26.9117 22.0117L23.5583 30.1967L23.9117 30.51L27.3817 22.01L25.815 18.05H25.1367Z" fill="#0B3463"/>
<path d="M10.235 20.4717L10.0017 20.1883H9.92167L8.38167 16.5883H7.99L9.55833 20.3733C9.5834 20.4366 9.62446 20.4923 9.6775 20.5349C9.73054 20.5776 9.79374 20.6058 9.86092 20.6167C9.9281 20.6276 9.99697 20.6209 10.0608 20.5972C10.1246 20.5736 10.1812 20.5337 10.225 20.4817L10.235 20.4717Z" fill="#3286C1"/>
<path d="M15.6367 7.81501L15.3233 7.53168L10 20.185L10.275 20.5483L15.6367 7.80334V7.81501Z" fill="#0B427B"/>
<path d="M21.705 4.76666V5.23666L15.6367 7.815L15.3233 7.53166L21.705 4.76666Z" fill="#328ABA"/>
<path d="M3.33333 17.2267H2.67667L2.87333 17.6584L2.95167 17.5017L2.98 17.4717C2.99226 17.465 3.00602 17.4615 3.02 17.4615C3.03398 17.4615 3.04774 17.465 3.06 17.4717C3.07111 17.4784 3.08056 17.4884 3.08833 17.5017L4.60833 21.1784L14.8917 25.4517L14.735 25.53L15.1283 25.765V25.2167L4.805 20.8634L3.33333 17.2267Z" fill="#07366B"/>
<path d="M1.725 20.6667L1.45167 20.9034L2.62667 23.9417L11.1467 27.4317L15.1267 25.765L14.735 25.5317L11.1467 27.0317L2.94167 23.6284L1.715 20.6667H1.725Z" fill="#327ABB"/>
<path d="M2.67667 17.2267L2.87167 17.6584L1.69667 20.55L1.725 20.6667L1.45167 20.9034L1.37167 20.6667L2.67667 17.2267Z" fill="#1D4D76"/>
<path d="M5.07833 20.3833L9.02 22.01L9.37333 21.8933L9.33333 21.8533L8.98 21.4917L5.35333 20.07L1.96 11.765H1.45167L5.07833 20.3933V20.3833Z" fill="#348AC9"/>
<path d="M7.15667 6.86334L2.91167 8.63834L3.10833 8.96168L6.41167 7.53001L4.805 11.255L8.98 21.4917L9.45167 21.9717V21.3833L5.15667 11.2833L7.16667 6.86334H7.15667Z" fill="#0B3061"/>
<path d="M12.205 4.92334L11.9317 4.57001L7.715 14.7367L7.99 15.1283L12.2067 4.93334L12.205 4.92334Z" fill="#093062"/>
<path d="M9.36167 2.79499L9.49 2.94166L12.5283 1.67666L15.5683 2.95166L15.5183 3.06832L15.5967 3.42332L15.685 3.38332C15.8017 3.33332 15.8817 3.21666 15.8817 3.08999V2.89332C15.8817 2.80499 15.8233 2.72666 15.735 2.68666L12.6467 1.30332C12.5678 1.27276 12.4802 1.27335 12.4017 1.30499L9.42 2.54999C9.39748 2.5596 9.37752 2.57436 9.36174 2.59309C9.34595 2.61181 9.33477 2.63397 9.3291 2.65779C9.32343 2.68161 9.32342 2.70644 9.32907 2.73026C9.33473 2.75409 9.34589 2.77626 9.36167 2.79499Z" fill="#0C2F57"/>
<path d="M12.205 4.92334L15.735 3.36334C15.7752 3.34291 15.8091 3.31199 15.8332 3.27384C15.8573 3.2357 15.8705 3.19176 15.8717 3.14667L15.5183 3.07001L11.93 4.57001L12.205 4.92334Z" fill="#2C73AA"/>
<path d="M2.47 15.6383L2.11833 15.805L0.0683331 20.55H0.381667L2.47 15.6483V15.6383Z" fill="#1F5275"/>
<path d="M0 20.6767L0.0683331 20.55H0.381667L0.353333 20.6767V20.7267L1.87333 24.4317C1.87333 24.4517 1.89167 24.4617 1.91167 24.4717L6.57833 26.4617L6.62833 26.5117L8.49 31.3933L8.54 31.4317L11.745 32.795H11.8033L16.3133 30.9217C16.3241 30.9168 16.3357 30.9143 16.3475 30.9143C16.3593 30.9143 16.3709 30.9168 16.3817 30.9217L21.2833 32.9917H21.3433L24.3633 31.7167L24.4017 31.6667L26.46 27.06L26.51 27.02L31.2933 25.1083L31.3333 25.07L32.705 22.05H33.1767L31.725 25.4217C31.725 25.4417 31.705 25.4517 31.6867 25.4617L26.705 27.4517C26.6935 27.4558 26.6831 27.4624 26.6744 27.4711C26.6658 27.4797 26.6592 27.4902 26.655 27.5017L24.6767 31.9517L24.6367 31.99L21.225 33.4617H21.1667L16.3033 31.275H16.235L11.725 33.15H11.6667L8.18667 31.7167C8.17534 31.7127 8.16501 31.7063 8.15638 31.698C8.14775 31.6896 8.14103 31.6795 8.13667 31.6683L6.31333 26.7467C6.30233 26.7278 6.28437 26.7141 6.26333 26.7083L1.67667 24.875C1.66703 24.8697 1.65854 24.8626 1.65167 24.854C1.64481 24.8454 1.63971 24.8355 1.63667 24.825L0 20.7383V20.6767Z" fill="#0E1D3D"/>
<path d="M31.3617 17.54L33.175 22.05H32.705L31.0083 17.54H31.3617Z" fill="#348296"/>
<path d="M31.2833 17.345L31.3633 17.54H31.01L30.8933 17.265L32.9417 12.5984L31.4417 8.87335C31.755 8.96169 33.0983 12.4817 33.0983 12.4817H33.3333L31.2833 17.345Z" fill="#225973"/>
<path d="M31.9617 8.84336L33.3333 12.4717H33.0983L31.5983 9.08003L27.225 7.17669L27.3833 6.94336L31.95 8.83336L31.9617 8.84336Z" fill="#377585"/>
<path d="M27.225 7.17665L27.3817 6.94331L25.6483 2.00165L25.4117 2.31498L27.225 7.17665Z" fill="#255A73"/>
<path d="M21.6667 0.45166L25.6467 2.00166L25.4133 2.31499L21.3917 0.569994L21.6667 0.45166Z" fill="#336C80"/>
<path d="M12.725 5.04002L12.9217 5.35335L21.235 1.92335L24.185 3.18669L25.4517 6.34335L25.8433 6.54002V6.03002L24.5483 2.94169L21.3917 1.47169C21.3407 1.44918 21.2857 1.43756 21.23 1.43756C21.1743 1.43756 21.1193 1.44918 21.0683 1.47169L12.725 5.04002Z" fill="#0E3762"/>
<path d="M25.8433 6.51002L25.45 6.34335L21.705 4.76501V5.23668L25.765 6.86335L25.8433 6.51002Z" fill="#4396D9"/>
<path d="M18.3533 7.68664L17.9617 7.41331L22.02 5.63831L30.4517 9.15831L31.835 12.4816L30.3833 15.9116L30.0983 15.56L31.4017 12.4816L30.1767 9.50997L22.02 6.07997L18.3533 7.69664V7.68664Z" fill="#0F3467"/>
<path d="M18.3533 7.68666L17.9617 7.41333L18.04 8.00166L28.3333 12.3633L29.7833 15.9233H30.3733L30.0983 15.56H29.9817L28.5683 11.9617L18.3517 7.69666L18.3533 7.68666Z" fill="#3C94CC"/>
<path d="M23.99 11.4917L23.5583 10.9033L28.0883 12.795L31.5983 21.255L30.255 24.4617L29.9417 24.1867L31.1667 21.1767L27.775 12.9917L23.99 11.4917Z" fill="#0A3260"/>
<path d="M23.99 11.4917L23.56 10.9033L23.4417 11.2167L27.8917 21.8533H28.285L23.99 11.4917Z" fill="#3B9ED4"/>
<path d="M30.255 24.4616L29.94 24.1866L26.48 25.53V26.04L30.255 24.4616Z" fill="#2B709C"/>
<path d="M20.45 31.9333L23.9117 30.51L23.5583 30.1966L20.6083 31.4616L17.175 29.8833V30.4333L20.45 31.9333Z" fill="#3581BD"/>
<path d="M20.8817 28.295L17.175 29.8833L17.6083 30.0783L21.195 28.4916L20.8817 28.295Z" fill="#0C396A"/>
<path d="M22.775 12.56L23.0083 12.9917L23.0483 12.8733H23.205L24.705 16.6283L20.0983 27.785L20.4117 28.1383L25.0967 16.6683L23.48 12.55H22.7733L22.775 12.56Z" fill="#0C4D7D"/>
<path d="M11.775 31.7066L20.4017 28.1383L20.0883 27.785L11.8917 31.2166L11.775 31.7066Z" fill="#266096"/>
<path d="M7.64667 26.8333L7.35333 26.56H8.10833L11.3817 27.9417L17.45 25.4517L17.765 25.6483L11.3433 28.3733L7.63667 26.8333H7.64667Z" fill="#092D54"/>
<path d="M7.675 14.815L7.715 14.7367L7.99 15.1283H7.36167L5.62667 11.05H6.13667L7.675 14.815Z" fill="#3584C7"/>
<path d="M21.94 12.3634L15.5683 9.63002L15.49 9.82502L15.245 9.27502H15.8717L22.4217 12.1184V12.235L21.0783 15.2067L20.7633 15.05L21.94 12.3634Z" fill="#0D628F"/>
<path d="M13.47 13.6284L13.745 13.9817L13.8133 13.825L20.1267 16.59L18.9517 19.2367L19.3033 19.4817L20.4117 16.835L20.5683 16.4317L14.255 13.6284H13.47Z" fill="#0B799C"/>
<path d="M19.3033 19.4817L18.95 19.2367L12.6767 16.51L12.5283 16.825L19.185 19.7167L19.3033 19.4817Z" fill="#3CA3D6"/>
<path d="M17.53 23.7066L17.0967 23.51L18.3533 20.7466L12.0483 18.01L11.97 18.1766L11.6567 17.785H12.285L18.8333 20.59L17.53 23.7066Z" fill="#0D668A"/>
<path d="M17.5283 23.7067L17.215 23.4717L10.8717 20.7067L10.715 21.06L17.4117 23.99L17.5283 23.7067Z" fill="#3790CC"/>
<path d="M17.4117 2.23664L12.3617 0.138306L8.66667 1.75497H9.41167L12.3617 0.579972L17.4117 2.63831V2.23664Z" fill="#2E647A"/>
<path d="M0.941667 11.8433L0.725 11.9233L2.11833 15.805L2.47 15.6383L0.941667 11.8433Z" fill="#0F2D54"/>
<path fill-rule="evenodd" clip-rule="evenodd" d="M12.6299 0.0236561C12.7091 -0.00788536 12.7974 -0.00788536 12.8766 0.0236561L17.3766 2.00366C17.4151 2.0209 17.4569 2.02981 17.4991 2.02981C17.5413 2.02981 17.5831 2.0209 17.6216 2.00366L21.7383 0.336989L25.6716 2.00366C25.7502 2.03737 25.8129 2.10003 25.8466 2.17866L27.4833 6.61199C27.515 6.68912 27.5744 6.75156 27.6499 6.78699L31.6699 8.56199C31.7402 8.59733 31.7957 8.65636 31.8266 8.72866L33.2766 12.2387C33.2962 12.2765 33.3064 12.3185 33.3064 12.3612C33.3064 12.4038 33.2962 12.4458 33.2766 12.4837L31.3166 16.8753C31.2828 16.953 31.2798 17.0406 31.3083 17.1203L33.0416 21.6303C33.0707 21.7128 33.0707 21.8028 33.0416 21.8853L31.7683 24.7687C31.7324 24.8445 31.6693 24.904 31.5916 24.9353L26.9549 26.777C26.8772 26.8084 26.8141 26.8679 26.7783 26.9437L24.8166 31.3853C24.7838 31.4539 24.7285 31.5092 24.6599 31.542L21.7483 32.787C21.6666 32.8208 21.5749 32.8208 21.4933 32.787L16.8166 30.757C16.7379 30.7259 16.6503 30.7259 16.5716 30.757L12.2483 32.552C12.1696 32.5831 12.082 32.5831 12.0033 32.552L8.89659 31.277C8.85715 31.2569 8.82209 31.2292 8.79348 31.1954C8.76486 31.1617 8.74326 31.1225 8.72993 31.0803L6.96326 26.3653C6.93406 26.2838 6.87428 26.2169 6.79659 26.1787L2.30826 24.317C2.26792 24.2991 2.23154 24.2734 2.20121 24.2414C2.17089 24.2093 2.14722 24.1716 2.13159 24.1303L0.689927 20.552C0.658826 20.4733 0.658826 20.3857 0.689927 20.307L2.63993 15.707C2.67059 15.6288 2.67059 15.5419 2.63993 15.4637L1.04493 11.6403C1.01113 11.5587 1.01113 11.467 1.04493 11.3853L2.54493 7.93532C2.57833 7.85513 2.64172 7.79114 2.72159 7.75699L6.79993 6.15032C6.87222 6.11939 6.93126 6.0639 6.96659 5.99366L8.94659 1.67032C8.98162 1.59945 9.04069 1.54333 9.11326 1.51199L12.6233 0.0219895L12.6299 0.0236561ZM26.8166 25.317C26.8166 25.532 27.0333 25.6687 27.2199 25.5903L30.4749 24.1987C30.5504 24.1645 30.6121 24.1057 30.6499 24.032L31.8466 21.0903C31.8747 21.0151 31.8747 20.9322 31.8466 20.857L28.4349 12.6687C28.4015 12.5947 28.3423 12.5354 28.2683 12.502L24.0516 10.7387C24.0245 10.7306 23.9957 10.7299 23.9683 10.7368C23.9409 10.7438 23.9159 10.758 23.8959 10.778C23.8759 10.798 23.8617 10.823 23.8548 10.8504C23.8479 10.8778 23.8485 10.9066 23.8566 10.9337L28.2283 21.6103H28.6216L27.1316 25.2087L26.8166 25.3253V25.317ZM18.5833 7.05032C18.5248 7.07426 18.4748 7.11515 18.4398 7.16772C18.4047 7.22029 18.3862 7.28214 18.3866 7.34532V7.47366C18.3866 7.60032 18.4533 7.71866 18.5816 7.76699L28.6599 12.1203L30.0433 15.4437C30.0933 15.5603 30.2099 15.6403 30.3366 15.6403H30.4349C30.4978 15.6404 30.5593 15.6217 30.6116 15.5867C30.6638 15.5517 30.7044 15.5019 30.7283 15.4437L32.0716 12.4637C32.1027 12.3849 32.1027 12.2974 32.0716 12.2187L30.8466 9.11032C30.8108 9.03453 30.7477 8.97502 30.6699 8.94366L22.4833 5.52366C22.4046 5.49256 22.317 5.49256 22.2383 5.52366L18.5833 7.05032ZM12.7366 1.09032C12.8158 1.05878 12.9041 1.05878 12.9833 1.09032L16.0216 2.42366C16.1383 2.47366 16.2183 2.59032 16.2183 2.71866V2.83532C16.2186 2.8985 16.2001 2.96036 16.1651 3.01293C16.13 3.0655 16.0801 3.10638 16.0216 3.13032L12.6583 4.58032C12.5843 4.61373 12.525 4.67299 12.4916 4.74699L8.41326 14.6987C8.38943 14.7569 8.3488 14.8067 8.29656 14.8417C8.24431 14.8767 8.18282 14.8954 8.11993 14.8953H7.92326C7.86036 14.8954 7.79887 14.8767 7.74663 14.8417C7.69439 14.8067 7.65376 14.7569 7.62993 14.6987L6.11993 11.1687C6.10169 11.131 6.09342 11.0892 6.0959 11.0474C6.09838 11.0056 6.11153 10.9652 6.13409 10.9299C6.15666 10.8946 6.18789 10.8657 6.2248 10.846C6.2617 10.8262 6.30306 10.8162 6.34493 10.817H6.48326L9.83659 2.70699C9.80672 2.68058 9.78411 2.64696 9.77092 2.60934C9.75773 2.57171 9.7544 2.53133 9.76125 2.49205C9.76811 2.45277 9.78491 2.4159 9.81006 2.38497C9.83521 2.35403 9.86787 2.33005 9.90493 2.31532L12.7483 1.09866L12.7366 1.09032ZM16.0699 7.47366C15.9941 7.50949 15.9346 7.57257 15.9033 7.65032L10.6583 20.1003C10.6344 20.1585 10.5938 20.2083 10.5416 20.2433C10.4893 20.2784 10.4278 20.297 10.3649 20.297H10.1883C10.1254 20.297 10.0639 20.2784 10.0116 20.2433C9.95939 20.2083 9.91876 20.1585 9.89493 20.1003L8.43326 16.6003C8.42149 16.5726 8.41672 16.5424 8.41939 16.5124C8.42205 16.4824 8.43206 16.4535 8.44854 16.4283C8.46501 16.4031 8.48744 16.3824 8.51385 16.3679C8.54025 16.3534 8.56982 16.3457 8.59993 16.3453C8.63546 16.3477 8.67081 16.3386 8.7008 16.3194C8.7308 16.3002 8.75385 16.2719 8.76659 16.2387L13.2466 5.11032C13.2584 5.08508 13.2629 5.05706 13.2597 5.02939C13.2564 5.00171 13.2456 4.97549 13.2283 4.95366C13.205 4.92649 13.1922 4.89191 13.1922 4.85616C13.1922 4.8204 13.205 4.78583 13.2283 4.75866C13.2446 4.7413 13.2645 4.72766 13.2866 4.71866L21.4433 1.25699C21.5249 1.22319 21.6166 1.22319 21.6983 1.25699L24.7566 2.69032C24.834 2.72814 24.8937 2.79444 24.9233 2.87532L26.0516 6.12032C26.0709 6.17135 26.0744 6.22697 26.0619 6.28004C26.0493 6.33311 26.0211 6.3812 25.9809 6.41813C25.9408 6.45505 25.8905 6.47911 25.8366 6.48723C25.7826 6.49534 25.7275 6.48713 25.6783 6.46365L22.1683 5.00199C22.0896 4.97089 22.002 4.97089 21.9233 5.00199L16.0699 7.47366ZM23.5599 12.317C23.6883 12.317 23.8066 12.3953 23.8549 12.512L25.3049 16.267C25.3335 16.3427 25.3335 16.4263 25.3049 16.502L20.7566 27.777C20.7208 27.8528 20.6577 27.9123 20.5799 27.9437L12.2466 31.3937C12.165 31.4275 12.0732 31.4275 11.9916 31.3937L9.06993 30.0803C8.99968 30.045 8.94419 29.986 8.91326 29.9137L7.59993 26.757C7.58036 26.709 7.57298 26.657 7.57847 26.6055C7.58395 26.5539 7.60212 26.5046 7.63135 26.4618C7.66057 26.4191 7.69995 26.3842 7.74595 26.3604C7.79194 26.3366 7.84313 26.3245 7.89493 26.3253H8.38493C8.42326 26.3253 8.46326 26.3253 8.50159 26.3453L11.6183 27.6987C11.6975 27.7302 11.7857 27.7302 11.8649 27.6987L17.7866 25.2187L18.0999 25.4137L18.5699 24.317L23.3066 12.8553C23.326 12.7918 23.326 12.7239 23.3066 12.6603L23.2283 12.327H23.5616L23.5599 12.317ZM17.9133 29.8653C17.8741 29.9 17.8443 29.9439 17.8264 29.993C17.8086 30.0421 17.8033 30.0949 17.8111 30.1466C17.8189 30.1983 17.8395 30.2472 17.871 30.2889C17.9025 30.3306 17.944 30.3637 17.9916 30.3853L20.7383 31.602C20.8149 31.6303 20.9049 31.6303 20.9816 31.602L24.0899 30.3253C24.1654 30.2899 24.2249 30.2275 24.2566 30.1503L27.6683 21.8837C27.6989 21.8054 27.6989 21.7185 27.6683 21.6403L26.1399 17.817H25.4733L25.5899 18.2087C25.616 18.2814 25.616 18.3609 25.5899 18.4337L21.5316 28.247L21.2183 28.052L17.5116 29.6403L17.9433 29.8353L17.9133 29.8653ZM17.7566 23.3853C17.7217 23.4598 17.6593 23.5177 17.5825 23.547C17.5056 23.5762 17.4205 23.5744 17.3449 23.542L11.3649 20.8953C11.2925 20.8605 11.2361 20.7995 11.207 20.7246C11.1779 20.6497 11.1783 20.5665 11.2083 20.492L12.4416 17.6503C12.4492 17.6294 12.461 17.6102 12.4761 17.5939C12.4913 17.5776 12.5096 17.5644 12.5299 17.5553C12.55 17.5463 12.5717 17.5414 12.5938 17.5408C12.6158 17.5402 12.6377 17.544 12.6583 17.552L18.8649 20.2187C19.0316 20.2853 19.0999 20.4737 19.0316 20.6403L17.7566 23.3853ZM19.6483 19.1787C19.6142 19.2567 19.5516 19.3187 19.4733 19.352C19.3937 19.381 19.3061 19.3786 19.2283 19.3453L13.1683 16.6987C13.0963 16.6639 13.0401 16.6031 13.011 16.5286C12.982 16.4541 12.9822 16.3713 13.0116 16.297L14.1399 13.6203C14.173 13.5441 14.2346 13.4839 14.3116 13.4527C14.3887 13.4215 14.4748 13.4219 14.5516 13.4537L20.6299 16.062C20.705 16.093 20.7648 16.1525 20.796 16.2275C20.8273 16.3025 20.8275 16.3868 20.7966 16.462L20.7566 16.572L19.6583 19.1687L19.6483 19.1787ZM21.3849 15.032C21.3591 15.0894 21.3168 15.1378 21.2634 15.1711C21.2099 15.2043 21.1478 15.2209 21.0849 15.2187C21.0428 15.2164 21.0016 15.2063 20.9633 15.1887L14.9533 12.522C14.8777 12.4877 14.8177 12.4265 14.7849 12.3503C14.7551 12.2731 14.7551 12.1875 14.7849 12.1103L15.9349 9.32699C15.968 9.25117 16.0294 9.19129 16.106 9.16014C16.1826 9.12899 16.2684 9.12906 16.3449 9.16032L22.4616 11.797C22.5001 11.8123 22.535 11.8354 22.5642 11.8648C22.5933 11.8943 22.6161 11.9295 22.6309 11.9681C22.6458 12.0068 22.6525 12.0482 22.6506 12.0896C22.6487 12.1309 22.6383 12.1715 22.6199 12.2087L21.3849 15.032ZM1.76826 20.542C1.74218 20.4693 1.74218 20.3897 1.76826 20.317L2.97326 17.1787C2.99535 17.1194 3.03561 17.0686 3.0883 17.0336C3.14098 16.9986 3.20338 16.9811 3.26659 16.9837H3.42326C3.55159 16.9837 3.66826 17.062 3.71826 17.1787L5.08993 20.532C5.12129 20.6097 5.1808 20.6728 5.25659 20.7087L15.2666 24.8853C15.3833 24.9353 15.4633 25.052 15.4633 25.1787V25.317C15.4612 25.3794 15.4417 25.44 15.407 25.4918C15.3722 25.5437 15.3236 25.5848 15.2666 25.6103L11.5999 27.1303C11.5242 27.1589 11.4407 27.1589 11.3649 27.1303L3.12993 23.7187C3.05413 23.6828 2.99462 23.6197 2.96326 23.542L1.76826 20.542ZM5.49159 11.052L9.75826 21.1687L9.67826 21.4837C9.6689 21.5283 9.64987 21.5703 9.62253 21.6067C9.59517 21.6432 9.56017 21.6732 9.51996 21.6946C9.47976 21.7161 9.43534 21.7284 9.38984 21.7309C9.34433 21.7333 9.29885 21.7257 9.25659 21.7087L5.53993 20.1887C5.46593 20.1553 5.40666 20.096 5.37326 20.022L2.00493 11.9837C1.98975 11.9444 1.98254 11.9025 1.98373 11.8605C1.98492 11.8184 1.99449 11.777 2.01187 11.7387C2.02925 11.7003 2.05409 11.6658 2.08495 11.6372C2.11581 11.6086 2.15206 11.5864 2.19159 11.572L2.30826 11.522L3.45659 8.71866C3.42876 8.6868 3.4089 8.64879 3.39866 8.60775C3.38842 8.5667 3.38809 8.52382 3.39769 8.48262C3.4073 8.44143 3.42657 8.40311 3.45391 8.37083C3.48125 8.33855 3.51587 8.31324 3.55493 8.29699L6.73993 6.96366C7.00659 6.85532 7.25993 7.13032 7.14326 7.38532L5.50493 11.052H5.49159Z" fill="url(#paint9_linear_228_48)"/>
<defs>
<filter id="filter0_d_228_48" x="35.7911" y="9.54999" width="78.0342" height="22.3774" filterUnits="userSpaceOnUse" color-interpolation-filters="sRGB">
<feFlood flood-opacity="0" result="BackgroundImageFix"/>
<feColorMatrix in="SourceAlpha" type="matrix" values="0 0 0 0 0 0 0 0 0 0 0 0 0 0 0 0 0 0 127 0" result="hardAlpha"/>
<feOffset dy="4"/>
<feGaussianBlur stdDeviation="2"/>
<feComposite in2="hardAlpha" operator="out"/>
<feColorMatrix type="matrix" values="0 0 0 0 0 0 0 0 0 0 0 0 0 0 0 0 0 0 0.25 0"/>
<feBlend mode="normal" in2="BackgroundImageFix" result="effect1_dropShadow_228_48"/>
<feBlend mode="normal" in="SourceGraphic" in2="effect1_dropShadow_228_48" result="shape"/>
</filter>
<linearGradient id="paint0_linear_228_48" x1="11.765" y1="4.03335" x2="16.36" y2="32.4883" gradientUnits="userSpaceOnUse">
<stop stop-color="#1155F2"/>
<stop offset="1" stop-color="#8FE7FB"/>
</linearGradient>
<linearGradient id="paint1_linear_228_48" x1="2.92" y1="8.28164" x2="33.1117" y2="19.6283" gradientUnits="userSpaceOnUse">
<stop stop-color="#114CF9"/>
<stop offset="0.72" stop-color="#9AE5FA"/>
<stop offset="1" stop-color="#52C9FA"/>
</linearGradient>
<linearGradient id="paint2_linear_228_48" x1="29.55" y1="4.07499" x2="9.99667" y2="33.015" gradientUnits="userSpaceOnUse">
<stop stop-color="#5BDDFB"/>
<stop offset="0.23" stop-color="#D2FAFB"/>
<stop offset="1" stop-color="#1659F1"/>
</linearGradient>
<linearGradient id="paint3_linear_228_48" x1="27.9883" y1="6.68502" x2="19.1367" y2="33.5017" gradientUnits="userSpaceOnUse">
<stop stop-color="#4ED3F9"/>
<stop offset="0.23" stop-color="#82E0FA"/>
<stop offset="1" stop-color="#1563F1"/>
</linearGradient>
<linearGradient id="paint4_linear_228_48" x1="10.38" y1="3.80503" x2="14.2067" y2="31.395" gradientUnits="userSpaceOnUse">
<stop stop-color="#5EDEFB"/>
<stop offset="1" stop-color="#136DE8"/>
</linearGradient>
<linearGradient id="paint5_linear_228_48" x1="22.9283" y1="4.86502" x2="13.295" y2="31.205" gradientUnits="userSpaceOnUse">
<stop stop-color="#73E2FC"/>
<stop offset="0.25" stop-color="#D5F7FA"/>
<stop offset="0.49" stop-color="#EAFBFC"/>
<stop offset="0.72" stop-color="#CCF6FB"/>
<stop offset="1" stop-color="#83E9FB"/>
</linearGradient>
<linearGradient id="paint6_linear_228_48" x1="31.115" y1="21.1584" x2="3.93667" y2="11.7017" gradientUnits="userSpaceOnUse">
<stop stop-color="#1566F0"/>
<stop offset="1" stop-color="#87DCFB"/>
</linearGradient>
<linearGradient id="paint7_linear_228_48" x1="29.71" y1="6.29835" x2="4.19" y2="31.1484" gradientUnits="userSpaceOnUse">
<stop stop-color="#1E68F3"/>
<stop offset="0.33" stop-color="#5AC9FD"/>
<stop offset="0.7" stop-color="#BAF5FC"/>
<stop offset="1" stop-color="#50CFFB"/>
</linearGradient>
<linearGradient id="paint8_linear_228_48" x1="16.6667" y1="0.160007" x2="11.095" y2="30.9233" gradientUnits="userSpaceOnUse">
<stop stop-color="#2972F7"/>
<stop offset="0.63" stop-color="#93E0FD"/>
<stop offset="1" stop-color="#8ADAFC"/>
</linearGradient>
<linearGradient id="paint9_linear_228_48" x1="18.0349" y1="8.64032" x2="23.4366" y2="31.4053" gradientUnits="userSpaceOnUse">
<stop stop-color="#255E8B"/>
<stop offset="0.3" stop-color="#FF9100"/>
<stop offset="1" stop-color="#153A5A"/>
</linearGradient>
</defs>
</svg>
